<?xml version="1.0" standalone="no"?>
<!DOCTYPE svg PUBLIC "-//W3C//DTD SVG 20010904//EN"
 "http://www.w3.org/TR/2001/REC-SVG-20010904/DTD/svg10.dtd">
<svg version="1.0" xmlns="http://www.w3.org/2000/svg"
 width="500.000000pt" height="500.000000pt" viewBox="0 0 500.000000 500.000000"
 preserveAspectRatio="xMidYMid meet">
<metadata>
Created by potrace 1.11, written by Peter Selinger 2001-2013
</metadata>
<g transform="translate(0.000000,500.000000) scale(0.100000,-0.100000)"
fill="#000000" stroke="none">
<path d="M1661 4783 c-47 -19 -152 -146 -211 -255 -36 -68 -85 -192 -95 -243
-30 -144 -33 -181 -30 -305 2 -74 6 -151 10 -170 13 -64 55 -201 74 -238 15
-30 19 -62 20 -172 1 -74 3 -153 6 -175 21 -200 22 -538 1 -651 -2 -10 -7 -46
-10 -79 -4 -33 -9 -67 -11 -75 -2 -8 -6 -33 -10 -55 -3 -22 -7 -47 -10 -55 -2
-8 -6 -33 -10 -55 -3 -22 -12 -73 -20 -113 -20 -93 -29 -173 -29 -240 0 -28
-3 -52 -8 -52 -10 0 -12 47 -8 225 12 527 1 709 -52 935 -20 89 -64 218 -79
235 -5 5 -9 15 -9 23 0 23 -104 174 -156 226 -87 87 -243 179 -416 245 l-78
29 0 -929 0 -929 25 -6 c29 -7 30 -12 10 -38 -8 -10 -12 -22 -10 -26 3 -4 -2
-13 -10 -20 -13 -11 -15 -128 -15 -916 l0 -904 261 0 261 0 -7 63 c-4 34 -9
69 -10 77 -15 83 -26 476 -15 555 l5 40 47 -110 c26 -60 69 -171 97 -245 27
-74 56 -152 65 -172 9 -21 16 -39 16 -42 0 -2 -21 -14 -46 -26 -44 -22 -85
-70 -99 -117 l-6 -23 650 0 c447 0 651 3 651 10 0 23 -96 106 -136 118 -40 12
-41 13 -35 48 3 20 13 40 21 45 8 4 50 24 94 44 92 43 205 148 250 231 l28 51
66 2 c58 1 105 7 199 25 47 9 205 68 270 100 209 105 397 287 501 486 101 194
109 303 34 440 -19 35 -124 196 -186 284 -6 9 -2 23 12 44 36 50 27 114 -22
164 l-27 26 68 22 c175 56 337 146 420 232 116 119 81 239 -72 247 -27 2 -51
4 -52 5 -1 1 31 35 70 76 229 239 386 463 400 571 5 39 -11 86 -36 107 -19 16
-84 20 -150 9 l-47 -8 29 43 c16 24 39 65 52 91 23 48 24 48 64 41 22 -3 51
-8 65 -11 14 -2 49 -8 79 -13 30 -6 61 -10 68 -10 15 0 15 6 -19 175 -16 85
-27 127 -64 243 -2 7 -4 16 -5 20 -5 16 -53 121 -89 194 -126 250 -339 451
-587 555 -48 20 -95 32 -193 49 -98 17 -286 4 -450 -31 -14 -3 -34 -7 -45 -9
-11 -2 -65 -16 -120 -30 -55 -15 -108 -28 -117 -31 -10 -2 -78 -22 -153 -45
-178 -53 -357 -96 -480 -115 -143 -21 -136 -23 -169 40 -42 80 -144 214 -180
236 -30 18 -67 23 -95 12z m2350 -775 c5 -47 3 -72 -6 -75 -6 -2 -11 15 -11
42 0 25 4 45 8 45 5 0 9 -6 9 -12z m-388 -387 c16 -1 26 -5 23 -9 -7 -11 -127
-94 -131 -90 -1 2 -5 26 -9 55 l-6 51 47 -3 c27 -2 61 -3 76 -4z m-2283 -1801
c0 -5 -2 -10 -4 -10 -3 0 -8 5 -11 10 -3 6 -1 10 4 10 6 0 11 -4 11 -10z m-3
-42 c-3 -8 -6 -5 -6 6 -1 11 2 17 5 13 3 -3 4 -12 1 -19z m1740 -393 c-32 -30
-85 -73 -119 -96 -60 -41 -228 -132 -233 -127 -2 2 -6 21 -9 43 -4 22 -9 47
-12 57 -4 13 29 33 158 97 145 72 169 81 218 81 l55 -1 -58 -54z"/>
</g>
</svg>
